<svg width="121" height="120" viewBox="0 0 121 120" fill="none" xmlns="http://www.w3.org/2000/svg">
<path d="M60.5469 0C27.4149 0 0.546875 26.868 0.546875 60C0.546875 93.132 27.4149 120 60.5469 120C93.6789 120 120.547 93.132 120.547 60C120.547 26.868 93.6789 0 60.5469 0ZM60.5469 117.6C28.7829 117.6 2.94688 91.764 2.94688 60C2.94688 28.236 28.7829 2.4 60.5469 2.4C92.3109 2.4 118.147 28.236 118.147 60C118.147 91.764 92.3109 117.6 60.5469 117.6ZM44.9469 88.8C39.6429 88.8 35.3469 93.096 35.3469 98.4C35.3469 103.704 39.6429 108 44.9469 108C50.2509 108 54.5469 103.704 54.5469 98.4C54.5469 93.096 50.2509 88.8 44.9469 88.8ZM44.9469 105.6C40.9749 105.6 37.7469 102.372 37.7469 98.4C37.7469 94.428 40.9749 91.2 44.9469 91.2C48.9189 91.2 52.1469 94.428 52.1469 98.4C52.1469 102.372 48.9189 105.6 44.9469 105.6ZM28.0389 57L36.7869 48.252L35.0949 46.56L26.3469 55.308L17.5989 46.56L15.9069 48.252L24.6549 57L15.9069 65.748L17.5989 67.44L26.3469 58.692L35.0949 67.44L36.7869 65.748L28.0389 57ZM51.1989 35.052L59.9469 26.304L68.6949 35.052L70.3869 33.36L61.6389 24.612L70.3869 15.864L68.6949 14.172L59.9469 22.92L51.1989 14.172L49.5069 15.864L58.2549 24.612L49.5069 33.36L51.1989 35.052ZM93.8949 72.948L85.1469 81.696L76.3989 72.948L74.7069 74.64L83.4549 83.388L74.7069 92.136L76.3989 93.828L85.1469 85.08L93.8949 93.828L95.5869 92.136L86.8389 83.388L95.5869 74.64L93.8949 72.948ZM88.1589 31.44L89.6469 40.608C78.6069 41.988 70.0269 46.62 64.5789 50.496C62.8749 48.948 60.6309 48 58.1469 48C52.8429 48 48.5469 52.296 48.5469 57.6C48.5469 62.904 52.8429 67.2 58.1469 67.2C63.4509 67.2 67.7469 62.904 67.7469 57.6C67.7469 55.668 67.1709 53.868 66.1869 52.356C71.4429 48.672 79.6629 44.28 90.0429 42.984L91.4949 51.96L107.599 38.82L88.1589 31.44ZM58.1469 64.8C54.1749 64.8 50.9469 61.572 50.9469 57.6C50.9469 53.628 54.1749 50.4 58.1469 50.4C62.1189 50.4 65.3469 53.628 65.3469 57.6C65.3469 61.572 62.1189 64.8 58.1469 64.8ZM91.1949 35.16L102.859 39.588L93.1989 47.472L91.1949 35.16ZM46.7469 82.5L44.3949 82.032C44.2269 82.848 44.0829 83.7 43.9509 84.552L46.3269 84.9C46.4589 84.084 46.5909 83.28 46.7469 82.5ZM48.7509 75.468L46.5069 74.628C46.2189 75.408 45.9309 76.224 45.6789 77.052L47.9709 77.772C48.2109 76.98 48.4749 76.212 48.7509 75.468ZM51.8469 68.844L49.7589 67.656C49.3509 68.376 48.9429 69.132 48.5469 69.924L50.6949 71.004C51.0669 70.248 51.4629 69.528 51.8469 68.844Z" fill="white"/>
</svg>
