<svg width="36" height="37" viewBox="0 0 36 37" fill="none" xmlns="http://www.w3.org/2000/svg">
<rect y="0.5625" width="36" height="36" rx="18" fill="black"/>
<g clip-path="url(#clip0_23142_307)">
<path d="M23.9 11.3625C23.2 11.3625 22.6 11.9625 22.6 12.6625C22.6 13.3625 23.2 13.9625 23.9 13.9625C24.6 13.9625 25.2 13.3625 25.2 12.6625C25.2 11.9625 24.6 11.3625 23.9 11.3625ZM18 22.2625C16 22.2625 14.3 20.6625 14.3 18.5625C14.3 16.5625 15.9 14.8625 18 14.8625C20 14.8625 21.7 16.4625 21.7 18.5625C21.7 20.5625 20 22.2625 18 22.2625ZM18 12.9625C14.9 12.9625 12.4 15.4625 12.4 18.5625C12.4 21.6625 14.9 24.1625 18 24.1625C21.1 24.1625 23.6 21.6625 23.6 18.5625C23.6 15.4625 21.1 12.9625 18 12.9625ZM27 22.9625C27 24.0625 26.8 24.6625 26.6 24.9625C26.4 25.4625 26.2 25.8625 25.8 26.2625C25.4 26.6625 25 26.8625 24.5 27.0625C24.1 27.2625 23.5 27.3625 22.5 27.4625C21.3 27.5625 20.9 27.5625 18 27.5625C15.1 27.5625 14.7 27.5625 13.6 27.4625C12.5 27.4625 11.9 27.2625 11.6 27.0625C11.1 26.8625 10.7 26.6625 10.3 26.2625C9.9 25.8625 9.7 25.4625 9.5 24.9625C9.4 24.5625 9.2 23.9625 9.1 22.9625C9 21.8625 9 21.4625 9 18.5625C9 15.6625 9 15.2625 9.1 14.1625C9.1 13.0625 9.3 12.4625 9.5 12.1625C9.7 11.6625 9.9 11.2625 10.3 10.8625C10.7 10.4625 11.1 10.2625 11.6 10.0625C12 9.8625 12.6 9.7625 13.6 9.6625C14.7 9.5625 15.1 9.5625 18 9.5625C20.9 9.5625 21.3 9.5625 22.4 9.6625C23.5 9.6625 24.1 9.8625 24.4 10.0625C24.9 10.2625 25.3 10.4625 25.7 10.8625C26.1 11.2625 26.3 11.6625 26.5 12.1625C26.7 12.5625 26.8 13.1625 26.9 14.1625C27 15.2625 27 15.6625 27 18.5625V22.9625ZM28.9 14.0625C28.8 12.8625 28.7 12.0625 28.4 11.3625C28.1 10.6625 27.7 10.0625 27.1 9.4625C26.5 8.8625 25.9 8.4625 25.2 8.1625C24.5 7.8625 23.7 7.6625 22.5 7.6625C21.4 7.5625 21 7.5625 18 7.5625C15 7.5625 14.6 7.5625 13.5 7.6625C12.3 7.7625 11.5 7.8625 10.8 8.1625C10.1 8.4625 9.5 8.8625 8.9 9.4625C8.3 10.0625 7.9 10.6625 7.6 11.3625C7.3 12.0625 7.1 12.8625 7.1 14.0625C7 15.1625 7 15.5625 7 18.5625C7 21.5625 7 21.9625 7.1 23.0625C7.2 24.2625 7.3 25.0625 7.6 25.7625C7.9 26.4625 8.3 27.0625 8.9 27.6625C9.5 28.2625 10.1 28.6625 10.8 28.9625C11.5 29.2625 12.3 29.4625 13.5 29.4625C14.6 29.5625 15 29.5625 18 29.5625C21 29.5625 21.4 29.5625 22.5 29.4625C23.7 29.3625 24.5 29.2625 25.2 28.9625C25.9 28.6625 26.5 28.2625 27.1 27.6625C27.7 27.0625 28.1 26.4625 28.4 25.7625C28.7 25.0625 28.9 24.2625 28.9 23.0625C29 21.9625 29 21.5625 29 18.5625C29 15.5625 29 15.1625 28.9 14.0625Z" fill="white"/>
</g>
<defs>
<clipPath id="clip0_23142_307">
<rect width="36" height="36" fill="white" transform="translate(0 0.5625)"/>
</clipPath>
</defs>
</svg>
