<svg width="36" height="37" viewBox="0 0 36 37" fill="none" xmlns="http://www.w3.org/2000/svg">
<rect y="0.5625" width="36" height="36" rx="18" fill="black"/>
<g clip-path="url(#clip0_23142_313)">
<path d="M27.5 12.8625C26.8 13.1625 26 13.3625 25.2 13.4625C26 12.9625 26.6 12.1625 26.9 11.2625C26.1 11.7625 25.3 12.0625 24.4 12.2625C23.7 11.4625 22.6 11.0625 21.5 11.0625C19.3 11.0625 17.5 12.8625 17.5 15.0625C17.5 15.3625 17.5 15.6625 17.6 15.9625C14.3 15.7625 11.4 14.2625 9.39999 11.8625C9.09999 12.4625 8.89999 13.1625 8.89999 13.8625C8.89999 15.2625 9.59999 16.4625 10.7 17.1625C10.1 17.1625 9.39999 16.9625 8.89999 16.6625C8.89999 18.5625 10.3 20.1625 12.1 20.5625C11.8 20.6625 11.4 20.6625 11.1 20.6625C10.8 20.6625 10.6 20.6625 10.4 20.5625C10.9 22.1625 12.4 23.2625 14.1 23.2625C12.7 24.3625 11 24.9625 9.19999 24.9625C8.89999 24.9625 8.59999 24.9625 8.29999 24.8625C10.1 25.9625 12.1 26.6625 14.4 26.6625C21.7 26.6625 25.7 20.6625 25.7 15.3625V14.8625C26.3 14.3625 26.9 13.6625 27.5 12.8625Z" fill="white"/>
</g>
<defs>
<clipPath id="clip0_23142_313">
<rect width="36" height="36" fill="white" transform="translate(0 0.5625)"/>
</clipPath>
</defs>
</svg>
